<?xml version="1.0" standalone="no"?>
<!DOCTYPE svg PUBLIC "-//W3C//DTD SVG 20010904//EN" "http://www.w3.org/TR/2001/REC-SVG-20010904/DTD/svg10.dtd">
<svg version="1.0" xmlns="http://www.w3.org/2000/svg" width="500.000000pt" height="500.000000pt" viewBox="0 0 500.000000 500.000000" preserveAspectRatio="xMidYMid meet">

<g transform="translate(0.000000,500.000000) scale(0.100000,-0.100000)" fill="#d5acb0" stroke="none">
<path d="M2480 4825 c0 -168 1 -175 20 -175 19 0 20 7 20 175 0 168 -1 175 -20 175 -19 0 -20 -7 -20 -175z"/>
<path d="M1536 4801 c-5 -8 108 -296 123 -313 3 -4 12 -3 20 1 11 7 0 41 -50 165 -58 142 -78 172 -93 147z"/>
<path d="M3371 4654 c-52 -126 -61 -158 -50 -165 8 -4 17 -5 21 -1 9 10 128 298 128 311 0 6 -8 11 -18 11 -14 0 -33 -36 -81 -156z"/>
<path d="M2044 4754 c-8 -3 -9 -19 -3 -52 16 -85 19 -92 39 -92 23 0 23 0 10 60 -22 100 -19 95 -46 84z"/>
<path d="M2925 4738 c-30 -133 -30 -128 -5 -128 20 0 23 7 39 92 6 37 5 48 -6 52 -21 9 -22 8 -28 -16z"/>
<path d="M1221 4411 c-12 -8 -7 -21 25 -70 42 -65 42 -65 63 -52 10 7 5 22 -28 70 -23 33 -43 61 -44 61 -1 0 -8 -4 -16 -9z"/>
<path d="M3719 4358 c-33 -48 -38 -62 -28 -69 21 -13 21 -13 62 49 42 66 42 68 22 76 -10 3 -28 -14 -56 -56z"/>
<path d="M732 4268 c-9 -11 14 -39 112 -137 99 -98 125 -120 134 -109 9 11 -14 39 -112 137 -99 98 -125 120 -134 109z"/>
<path d="M4131 4156 c-98 -99 -120 -125 -109 -134 11 -9 39 14 137 112 98 99 120 125 109 134 -11 9 -39 -14 -137 -112z"/>
<path d="M586 3775 c-8 -22 113 -103 125 -84 13 21 13 21 -49 62 -66 42 -68 42 -76 22z"/>
<path d="M4338 3752 c-62 -40 -62 -40 -49 -61 12 -19 133 62 125 84 -8 21 -11 20 -76 -23z"/>
<path d="M190 3452 c0 -26 308 -152 321 -131 4 8 5 17 1 21 -9 9 -300 128 -312 128 -6 0 -10 -8 -10 -18z"/>
<path d="M4637 3406 c-82 -34 -148 -66 -148 -69 -1 -29 19 -25 164 34 107 44 156 69 154 78 -1 8 -6 16 -12 17 -5 1 -77 -26 -158 -60z"/>
<path d="M245 2952 c-8 -21 -4 -22 67 -38 81 -17 78 -17 78 6 0 20 -7 23 -92 39 -38 7 -48 5 -53 -7z"/>
<path d="M4700 2958 c-81 -14 -90 -18 -90 -38 0 -23 -3 -23 78 -6 71 16 77 19 65 38 -6 11 -19 12 -53 6z"/>
<path d="M0 2500 c0 -19 7 -20 175 -20 168 0 175 1 175 20 0 19 -7 20 -175 20 -168 0 -175 -1 -175 -20z"/>
<path d="M4650 2500 c0 -19 7 -20 175 -20 168 0 175 1 175 20 0 19 -7 20 -175 20 -168 0 -175 -1 -175 -20z"/>
<path d="M307 2085 c-66 -14 -70 -16 -62 -37 5 -12 15 -14 53 -7 85 16 92 19 92 39 0 23 -3 23 -83 5z"/>
<path d="M4610 2080 c0 -20 7 -23 92 -39 38 -7 48 -5 53 7 8 21 4 22 -67 38 -81 17 -78 17 -78 -6z"/>
<path d="M338 1626 c-135 -56 -164 -75 -139 -90 5 -3 69 19 142 50 74 31 144 60 156 65 23 9 22 40 -1 38 -6 -1 -77 -29 -158 -63z"/>
<path d="M4487 1675 c-4 -8 -3 -16 1 -19 17 -10 303 -126 312 -126 6 0 10 8 10 18 0 14 -36 32 -152 80 -84 34 -156 62 -159 62 -4 0 -9 -7 -12 -15z"/>
<path d="M638 1279 c-39 -26 -55 -44 -52 -54 4 -8 9 -15 13 -15 5 0 96 57 119 75 5 4 -10 35 -17 34 -3 0 -32 -18 -63 -40z"/>
<path d="M4286 1304 c-4 -9 -5 -18 -4 -19 23 -18 114 -75 119 -75 4 0 9 7 13 15 3 10 -14 28 -54 55 -32 22 -61 40 -63 40 -3 0 -8 -7 -11 -16z"/>
<path d="M841 866 c-98 -99 -120 -125 -109 -134 11 -9 39 14 137 112 98 99 120 125 109 134 -11 9 -39 -14 -137 -112z"/>
<path d="M4022 978 c-9 -11 14 -39 112 -137 99 -98 125 -120 134 -109 9 11 -14 39 -112 137 -99 98 -125 120 -134 109z"/>
<path d="M1248 662 c-43 -66 -43 -68 -23 -76 22 -8 103 113 84 125 -21 13 -21 13 -61 -49z"/>
<path d="M3691 711 c-19 -12 62 -133 84 -125 20 8 20 10 -22 76 -41 62 -41 62 -62 49z"/>
<path d="M1656 512 c-10 -17 -126 -303 -126 -312 0 -6 8 -10 18 -10 14 0 32 36 80 153 34 83 62 155 62 158 0 10 -29 19 -34 11z"/>
<path d="M3321 511 c-11 -7 0 -41 50 -165 58 -142 78 -172 93 -147 5 8 -108 296 -123 313 -3 4 -12 3 -20 -1z"/>
<path d="M2055 368 c-20 -85 -22 -117 -7 -123 21 -8 22 -4 38 67 17 81 17 78 -6 78 -12 0 -22 -9 -25 -22z"/>
<path d="M2900 383 c1 -18 28 -135 32 -139 3 -2 12 -2 20 1 12 5 14 15 7 53 -16 85 -19 92 -39 92 -11 0 -20 -3 -20 -7z"/>
<path d="M2480 175 c0 -168 1 -175 20 -175 19 0 20 7 20 175 0 168 -1 175 -20 175 -19 0 -20 -7 -20 -175z"/>
</g>
</svg>